<svg xmlns="http://www.w3.org/2000/svg" viewBox="0 0 24 24" fill="none">
  <path d="M12 15.5a3.5 3.5 0 1 0 0-7 3.5 3.5 0 0 0 0 7Z" stroke="#111827" stroke-width="1.5"/>
  <path d="M19.4 12a7.4 7.4 0 0 0-.07-.98l2.01-1.57a.5.5 0 0 0 .12-.64l-1.9-3.29a.5.5 0 0 0-.6-.22l-2.37.95a7.47 7.47 0 0 0-1.7-.98l-.36-2.52a.5.5 0 0 0-.5-.43h-3.8a.5.5 0 0 0-.5.43l-.36 2.52c-.61.25-1.18.57-1.7.98l-2.37-.95a.5.5 0 0 0-.6.22L2.54 8.8a.5.5 0 0 0 .11.64l2.01 1.57c-.03.32-.06.65-.06.98s.03.66.06.98L2.65 14.7a.5.5 0 0 0-.11.64l1.9 3.29c.13.22.39.32.6.22l2.37-.95c.52.4 1.09.73 1.7.98l.36 2.52c.05.25.26.43.5.43h3.8c.24 0 .45-.18.5-.43l.36-2.52c.61-.25 1.18-.57 1.7-.98l2.37.95c.21.1.47 0 .6-.22l1.9-3.29a.5.5 0 0 0-.12-.64l-2-1.57c.04-.32.07-.65.07-.98Z" stroke="#111827" stroke-width="1.5"/>
</svg>

